<svg xmlns="http://www.w3.org/2000/svg" width="1650" height="1432" viewBox="0 0 1650 1432" font-family="ui-sans-serif, -apple-system, Segoe UI, Helvetica, Arial, sans-serif">
<rect width="100%" height="100%" rx="16" fill="#f4f4f4"/>
<defs><marker id="arrow" viewBox="0 0 10 10" refX="9" refY="5" markerWidth="7" markerHeight="7" orient="auto-start-reverse"><path d="M 0 0 L 10 5 L 0 10 z" fill="context-stroke"/></marker><filter id="shadow" x="-5%" y="-10%" width="110%" height="130%"><feDropShadow dx="0" dy="1" stdDeviation="1.5" flood-color="#000" flood-opacity="0.08"/></filter></defs>
<rect x="28" y="28" width="22" height="22" rx="5" fill="#d50c2d"/>
<g transform="translate(32 32) scale(0.58)" fill="none" stroke="#fff" stroke-width="2.4" stroke-linecap="round" stroke-linejoin="round"><path d="M12 3l7 2.8v5.4c0 4.4-3 8.3-7 9.8-4-1.5-7-5.4-7-9.8V5.8z"/><path d="M9.5 12l1.8 1.8 3.4-3.6"/></g>
<text x="58" y="44" font-size="14" font-weight="800" fill="#1f1f1f">hetzner-audit</text>
<text x="160" y="44" font-size="12.5" fill="#6b6b6b">read-only Hetzner Cloud audit · github.com/jpolec/hetzner-cloud-audit-skills</text>
<text x="28" y="78" font-size="22" font-weight="700" fill="#1f1f1f">Hetzner Cloud architecture · example project</text>
<text x="28" y="102" font-size="13" fill="#6b6b6b">network zone eu-central · cloud control plane only (no host evidence) · public IPs omitted · collected 2026-09-19 06:12 UTC</text>
<rect x="28.0" y="124" width="217.4" height="86" rx="10" fill="#ffffff" stroke="#e3e3e3" filter="url(#shadow)"/>
<text x="42.0" y="146" font-size="11" font-weight="700" letter-spacing="0.6" fill="#6b6b6b">SERVERS</text>
<text x="42.0" y="178" font-size="28" font-weight="800" fill="#1f1f1f">14</text>
<text x="42.0" y="198" font-size="11.5" fill="#6b6b6b">3 locations</text>
<rect x="257.4" y="124" width="217.4" height="86" rx="10" fill="#ffffff" stroke="#e3e3e3" filter="url(#shadow)"/>
<text x="271.4" y="146" font-size="11" font-weight="700" letter-spacing="0.6" fill="#6b6b6b">INTERNET-EXPOSED</text>
<text x="271.4" y="178" font-size="28" font-weight="800" fill="#d50c2d">1</text>
<text x="271.4" y="198" font-size="11.5" fill="#6b6b6b">open to any address</text>
<rect x="486.9" y="124" width="217.4" height="86" rx="10" fill="#ffffff" stroke="#e3e3e3" filter="url(#shadow)"/>
<text x="500.9" y="146" font-size="11" font-weight="700" letter-spacing="0.6" fill="#6b6b6b">BEHIND CLOUDFLARE</text>
<text x="500.9" y="178" font-size="28" font-weight="800" fill="#f38020">3</text>
<text x="500.9" y="198" font-size="11.5" fill="#6b6b6b">web ports CF-only</text>
<rect x="716.3" y="124" width="217.4" height="86" rx="10" fill="#ffffff" stroke="#e3e3e3" filter="url(#shadow)"/>
<text x="730.3" y="146" font-size="11" font-weight="700" letter-spacing="0.6" fill="#6b6b6b">TAILSCALE ADMIN</text>
<text x="730.3" y="178" font-size="28" font-weight="800" fill="#6d4fc2">10</text>
<text x="730.3" y="198" font-size="11.5" fill="#6b6b6b">admin ports on tailnet</text>
<rect x="945.7" y="124" width="217.4" height="86" rx="10" fill="#ffffff" stroke="#e3e3e3" filter="url(#shadow)"/>
<text x="959.7" y="146" font-size="11" font-weight="700" letter-spacing="0.6" fill="#6b6b6b">PRIVATE NETWORK</text>
<text x="959.7" y="178" font-size="28" font-weight="800" fill="#d98e04">12</text>
<text x="959.7" y="198" font-size="11.5" fill="#6b6b6b">servers · not filtered by cloud FW</text>
<rect x="1175.1" y="124" width="217.4" height="86" rx="10" fill="#ffffff" stroke="#e3e3e3" filter="url(#shadow)"/>
<text x="1189.1" y="146" font-size="11" font-weight="700" letter-spacing="0.6" fill="#6b6b6b">VOLUMES</text>
<text x="1189.1" y="178" font-size="28" font-weight="800" fill="#1f1f1f">11</text>
<text x="1189.1" y="198" font-size="11.5" fill="#6b6b6b">1,600 GB · 1 unattached</text>
<rect x="1404.6" y="124" width="217.4" height="86" rx="10" fill="#ffffff" stroke="#e3e3e3" filter="url(#shadow)"/>
<text x="1418.6" y="146" font-size="11" font-weight="700" letter-spacing="0.6" fill="#6b6b6b">DELETE-PROTECTED</text>
<text x="1418.6" y="178" font-size="28" font-weight="800" fill="#d98e04">2/14</text>
<text x="1418.6" y="198" font-size="11.5" fill="#6b6b6b">servers protected from deletion</text>
<rect x="288" y="234" width="1334" height="862" rx="12" fill="none" stroke="#8a8a8a" stroke-width="1.4"/>
<rect x="288" y="234" width="30" height="30" rx="7" fill="#d50c2d"/>
<g transform="translate(293 239) scale(0.833)" fill="none" stroke="#fff" stroke-width="1.9" stroke-linecap="round" stroke-linejoin="round"><path d="M7 18h10.5a4 4 0 0 0 .6-7.95A5.5 5.5 0 0 0 7.3 9.2 4.4 4.4 0 0 0 7 18z"/></g>
<text x="328" y="254" font-size="13" font-weight="700" fill="#1f1f1f">Hetzner Cloud project · network zone eu-central</text>
<rect x="304" y="274" width="1302" height="646" rx="10" fill="#f6fbf8" stroke="#1f9d55" stroke-width="1.6"/>
<rect x="304" y="274" width="26" height="26" rx="6" fill="#1f9d55"/>
<g transform="translate(309 279) scale(0.67)" fill="none" stroke="#fff" stroke-width="2" stroke-linecap="round"><rect x="4" y="9" width="16" height="11" rx="2"/><path d="M8 9V6.5a4 4 0 0 1 8 0V9"/></g>
<text x="340" y="292" font-size="13" font-weight="700" fill="#1f9d55">Private network core-net · 10.40.0.0/16</text>
<text x="340" y="310" font-size="11.5" fill="#6b6b6b">subnet 10.40.2.0/24 · any-to-any on all ports: Hetzner Cloud Firewalls do not filter private networks</text>
<rect x="438" y="318" width="664" height="756" rx="8" fill="none" stroke="#2f6fdb" stroke-width="1.2" stroke-dasharray="6 5" opacity="0.8"/>
<text x="448" y="334" font-size="11.5" font-weight="700" fill="#2f6fdb">FSN1 · Falkenstein · 9 servers</text>
<rect x="1114" y="318" width="232" height="756" rx="8" fill="none" stroke="#2f6fdb" stroke-width="1.2" stroke-dasharray="6 5" opacity="0.8"/>
<text x="1124" y="334" font-size="11.5" font-weight="700" fill="#2f6fdb">NBG1 · Nuremberg · 3 servers</text>
<rect x="1358" y="318" width="232" height="756" rx="8" fill="none" stroke="#2f6fdb" stroke-width="1.2" stroke-dasharray="6 5" opacity="0.8"/>
<text x="1368" y="334" font-size="11.5" font-weight="700" fill="#2f6fdb">HEL1 · Helsinki · 2 servers</text>
<rect x="312" y="336" width="118" height="126" rx="6" fill="#fafafa"/>
<rect x="320" y="392" width="22" height="22" rx="7" fill="#7c4dff"/>
<g transform="translate(325 397) scale(0.500)" fill="none" stroke="#fff" stroke-width="1.9" stroke-linecap="round" stroke-linejoin="round"><circle cx="12" cy="12" r="8"/><path d="M4 12h16M12 4c2.2 2.3 3.2 5 3.2 8s-1 5.7-3.2 8c-2.2-2.3-3.2-5-3.2-8s1-5.7 3.2-8"/></g>
<text x="320" y="432" font-size="11" font-weight="700" letter-spacing="0.4" fill="#6b6b6b">EDGE &amp;</text>
<text x="320" y="446" font-size="11" font-weight="700" letter-spacing="0.4" fill="#6b6b6b">WEB</text>
<rect x="312" y="462" width="118" height="84" rx="6" fill="#fafafa"/>
<rect x="320" y="476" width="22" height="22" rx="7" fill="#d50c2d"/>
<g transform="translate(325 481) scale(0.500)" fill="none" stroke="#fff" stroke-width="1.9" stroke-linecap="round" stroke-linejoin="round"><path d="M12 3l7 2.8v5.4c0 4.4-3 8.3-7 9.8-4-1.5-7-5.4-7-9.8V5.8z"/><path d="M9.5 12l1.8 1.8 3.4-3.6"/></g>
<text x="320" y="516" font-size="11" font-weight="700" letter-spacing="0.4" fill="#6b6b6b">IDENTITY &amp;</text>
<text x="320" y="530" font-size="11" font-weight="700" letter-spacing="0.4" fill="#6b6b6b">SECRETS</text>
<rect x="312" y="546" width="118" height="84" rx="6" fill="#fafafa"/>
<rect x="320" y="560" width="22" height="22" rx="7" fill="#2f6fdb"/>
<g transform="translate(325 565) scale(0.500)" fill="none" stroke="#fff" stroke-width="1.9" stroke-linecap="round" stroke-linejoin="round"><ellipse cx="12" cy="5.5" rx="7" ry="2.5"/><path d="M5 5.5v13c0 1.4 3.1 2.5 7 2.5s7-1.1 7-2.5v-13M5 12c0 1.4 3.1 2.5 7 2.5s7-1.1 7-2.5"/></g>
<text x="320" y="600" font-size="11" font-weight="700" letter-spacing="0.4" fill="#6b6b6b">DATA</text>
<rect x="312" y="630" width="118" height="84" rx="6" fill="#fafafa"/>
<rect x="320" y="644" width="22" height="22" rx="7" fill="#e8710a"/>
<g transform="translate(325 649) scale(0.500)" fill="none" stroke="#fff" stroke-width="1.9" stroke-linecap="round" stroke-linejoin="round"><rect x="4" y="4" width="16" height="6" rx="1.5"/><rect x="4" y="14" width="16" height="6" rx="1.5"/><path d="M7.5 7h.01M7.5 17h.01"/></g>
<text x="320" y="684" font-size="11" font-weight="700" letter-spacing="0.4" fill="#6b6b6b">APPLICATIONS</text>
<rect x="312" y="714" width="118" height="196" rx="6" fill="#fafafa"/>
<rect x="320" y="770" width="22" height="22" rx="7" fill="#6b7280"/>
<g transform="translate(325 775) scale(0.500)" fill="none" stroke="#fff" stroke-width="1.9" stroke-linecap="round" stroke-linejoin="round"><rect x="4" y="4" width="16" height="6" rx="1.5"/><rect x="4" y="14" width="16" height="6" rx="1.5"/><path d="M7.5 7h.01M7.5 17h.01"/></g>
<text x="320" y="810" font-size="11" font-weight="700" letter-spacing="0.4" fill="#6b6b6b">OTHER</text>
<rect x="304" y="944" width="1302" height="136" rx="10" fill="none" stroke="#e3e3e3" stroke-width="1.4" stroke-dasharray="3 4"/>
<text x="316" y="964" font-size="12" font-weight="700" fill="#6b6b6b">OUTSIDE THE PRIVATE NETWORK · public interface + cloud firewall only</text>
<rect x="28" y="254.0" width="196" height="60" rx="12" fill="#ffffff" stroke="#d50c2d" stroke-width="1.6" filter="url(#shadow)"/>
<rect x="40" y="267.0" width="34" height="34" rx="7" fill="#d50c2d"/>
<g transform="translate(45 272.0) scale(1.000)" fill="none" stroke="#fff" stroke-width="1.9" stroke-linecap="round" stroke-linejoin="round"><circle cx="12" cy="12" r="8"/><path d="M4 12h16M12 4c2.2 2.3 3.2 5 3.2 8s-1 5.7-3.2 8c-2.2-2.3-3.2-5-3.2-8s1-5.7 3.2-8"/></g>
<text x="84" y="281.0" font-size="14" font-weight="700" fill="#1f1f1f">Internet</text>
<text x="84" y="298.0" font-size="11" fill="#6b6b6b">any address</text>
<rect x="28" y="338.0" width="196" height="60" rx="12" fill="#ffffff" stroke="#f38020" stroke-width="1.6" filter="url(#shadow)"/>
<rect x="40" y="351.0" width="34" height="34" rx="7" fill="#f38020"/>
<g transform="translate(45 356.0) scale(1.000)" fill="none" stroke="#fff" stroke-width="1.9" stroke-linecap="round" stroke-linejoin="round"><path d="M7 18h10.5a4 4 0 0 0 .6-7.95A5.5 5.5 0 0 0 7.3 9.2 4.4 4.4 0 0 0 7 18z"/></g>
<text x="84" y="365.0" font-size="14" font-weight="700" fill="#1f1f1f">Cloudflare</text>
<text x="84" y="382.0" font-size="11" fill="#6b6b6b">proxy ranges only</text>
<rect x="28" y="422.0" width="196" height="60" rx="12" fill="#ffffff" stroke="#6d4fc2" stroke-width="1.6" filter="url(#shadow)"/>
<rect x="40" y="435.0" width="34" height="34" rx="7" fill="#6d4fc2"/>
<g transform="translate(45 440.0) scale(1.000)" fill="none" stroke="#fff" stroke-width="1.9" stroke-linecap="round" stroke-linejoin="round"><circle cx="6" cy="6" r="1.6"/><circle cx="12" cy="6" r="1.6"/><circle cx="18" cy="6" r="1.6"/><circle cx="6" cy="12" r="1.6"/><circle cx="12" cy="12" r="1.6"/><circle cx="18" cy="12" r="1.6"/><circle cx="12" cy="18" r="1.6"/></g>
<text x="84" y="449.0" font-size="14" font-weight="700" fill="#1f1f1f">Tailscale</text>
<text x="84" y="466.0" font-size="11" fill="#6b6b6b">tailnet · admin + WireGuard</text>
<path d="M 224 452.0 L 302 452.0" stroke="#6d4fc2" stroke-width="2" stroke-dasharray="6 5" fill="none" marker-end="url(#arrow)"/>
<text x="126.0" y="496.0" text-anchor="middle" font-size="11" fill="#6d4fc2">reaches 14 servers</text>
<path d="M 224 368.0 L 265 368.0 L 265 754 L 630 754 L 630 766" stroke="#f38020" stroke-width="1.8" fill="none" stroke-linejoin="round" marker-end="url(#arrow)"/>
<text x="622" y="750" text-anchor="end" font-size="10.5" font-weight="700" fill="#f38020">tcp/80, tcp/443</text>
<path d="M 224 368.0 L 265 368.0 L 265 376 L 630 376 L 630 388" stroke="#f38020" stroke-width="1.8" fill="none" stroke-linejoin="round" marker-end="url(#arrow)"/>
<text x="622" y="372" text-anchor="end" font-size="10.5" font-weight="700" fill="#f38020">tcp/80, tcp/443</text>
<path d="M 224 284.0 L 258 284.0 L 258 738 L 1540 738 L 1540 766" stroke="#d50c2d" stroke-width="2.4" fill="none" stroke-linejoin="round" marker-end="url(#arrow)"/>
<text x="1532" y="734" text-anchor="end" font-size="10.5" font-weight="700" fill="#d50c2d">tcp/80, tcp/443</text>
<path d="M 224 368.0 L 265 368.0 L 265 360 L 836 360 L 836 388" stroke="#f38020" stroke-width="1.8" fill="none" stroke-linejoin="round" marker-end="url(#arrow)"/>
<text x="828" y="356" text-anchor="end" font-size="10.5" font-weight="700" fill="#f38020">tcp/80, tcp/443</text>
<rect x="452" y="766" width="204" height="58" rx="9" fill="#ffffff" stroke="#e3e3e3" filter="url(#shadow)"/>
<rect x="462" y="778" width="34" height="34" rx="7" fill="#6b7280"/>
<g transform="translate(467 783) scale(1.000)" fill="none" stroke="#fff" stroke-width="1.9" stroke-linecap="round" stroke-linejoin="round"><rect x="4" y="4" width="16" height="6" rx="1.5"/><rect x="4" y="14" width="16" height="6" rx="1.5"/><path d="M7.5 7h.01M7.5 17h.01"/></g>
<text x="506" y="789" font-size="13" font-weight="700" fill="#1f1f1f">analytics-1</text>
<text x="506" y="805" font-size="11" fill="#6b6b6b">analytics · cpx22</text>
<rect x="601.6" y="758" width="46.4" height="16" rx="8" fill="#f38020"/>
<text x="624.8" y="769.5" text-anchor="middle" font-size="9.5" font-weight="800" letter-spacing="0.4" fill="#fff">VIA CF</text>
<rect x="452" y="640" width="204" height="58" rx="9" fill="#ffffff" stroke="#e3e3e3" filter="url(#shadow)"/>
<rect x="462" y="652" width="34" height="34" rx="7" fill="#e8710a"/>
<g transform="translate(467 657) scale(1.000)" fill="none" stroke="#fff" stroke-width="1.9" stroke-linecap="round" stroke-linejoin="round"><rect x="4" y="4" width="16" height="6" rx="1.5"/><rect x="4" y="14" width="16" height="6" rx="1.5"/><path d="M7.5 7h.01M7.5 17h.01"/></g>
<text x="506" y="663" font-size="13" font-weight="700" fill="#1f1f1f">api-1</text>
<text x="506" y="679" font-size="11" fill="#6b6b6b">app · cpx32</text>
<rect x="668" y="766" width="204" height="58" rx="9" fill="#ffffff" stroke="#e3e3e3" filter="url(#shadow)"/>
<rect x="678" y="778" width="34" height="34" rx="7" fill="#6b7280"/>
<g transform="translate(683 783) scale(1.000)" fill="none" stroke="#fff" stroke-width="1.9" stroke-linecap="round" stroke-linejoin="round"><rect x="4" y="4" width="16" height="6" rx="1.5"/><rect x="4" y="14" width="16" height="6" rx="1.5"/><path d="M7.5 7h.01M7.5 17h.01"/></g>
<text x="722" y="789" font-size="13" font-weight="700" fill="#1f1f1f">etl-1</text>
<text x="722" y="805" font-size="11" fill="#6b6b6b">etl · cx43</text>
<text x="722" y="818" font-size="10" font-weight="700" fill="#6b6b6b">320 GB</text>
<rect x="452" y="388" width="204" height="58" rx="9" fill="#ffffff" stroke="#e3e3e3" filter="url(#shadow)"/>
<rect x="462" y="400" width="34" height="34" rx="7" fill="#7c4dff"/>
<g transform="translate(467 405) scale(1.000)" fill="none" stroke="#fff" stroke-width="1.9" stroke-linecap="round" stroke-linejoin="round"><circle cx="12" cy="12" r="8"/><path d="M4 12h16M12 4c2.2 2.3 3.2 5 3.2 8s-1 5.7-3.2 8c-2.2-2.3-3.2-5-3.2-8s1-5.7 3.2-8"/></g>
<text x="506" y="411" font-size="13" font-weight="700" fill="#1f1f1f">gw-1</text>
<text x="506" y="427" font-size="11" fill="#6b6b6b">edge · cx23</text>
<rect x="601.6" y="380" width="46.4" height="16" rx="8" fill="#f38020"/>
<text x="624.8" y="391.5" text-anchor="middle" font-size="9.5" font-weight="800" letter-spacing="0.4" fill="#fff">VIA CF</text>
<rect x="452" y="990" width="204" height="58" rx="9" fill="#ffffff" stroke="#e3e3e3" filter="url(#shadow)"/>
<rect x="462" y="1002" width="34" height="34" rx="7" fill="#d50c2d"/>
<g transform="translate(467 1007) scale(1.000)" fill="none" stroke="#fff" stroke-width="1.9" stroke-linecap="round" stroke-linejoin="round"><path d="M12 3l7 2.8v5.4c0 4.4-3 8.3-7 9.8-4-1.5-7-5.4-7-9.8V5.8z"/><path d="M9.5 12l1.8 1.8 3.4-3.6"/></g>
<text x="506" y="1013" font-size="13" font-weight="700" fill="#1f1f1f">idp-1</text>
<text x="506" y="1029" font-size="11" fill="#6b6b6b">auth · cx23</text>
<text x="506" y="1042" font-size="10" font-weight="700" fill="#6b6b6b">20 GB</text>
<rect x="884" y="766" width="204" height="58" rx="9" fill="#ffffff" stroke="#e3e3e3" filter="url(#shadow)"/>
<rect x="894" y="778" width="34" height="34" rx="7" fill="#6b7280"/>
<g transform="translate(899 783) scale(1.000)" fill="none" stroke="#fff" stroke-width="1.9" stroke-linecap="round" stroke-linejoin="round"><rect x="4" y="4" width="16" height="6" rx="1.5"/><rect x="4" y="14" width="16" height="6" rx="1.5"/><path d="M7.5 7h.01M7.5 17h.01"/></g>
<text x="938" y="789" font-size="13" font-weight="700" fill="#1f1f1f">jobs-1</text>
<text x="938" y="805" font-size="11" fill="#6b6b6b">jobs · cx22</text>
<text x="938" y="818" font-size="10" font-weight="700" fill="#6b6b6b">30 GB</text>
<text x="976" y="818" font-size="10" font-weight="700" fill="#d98e04">deprecated type</text>
<rect x="452" y="836" width="204" height="58" rx="9" fill="#ffffff" stroke="#e3e3e3" filter="url(#shadow)"/>
<rect x="462" y="848" width="34" height="34" rx="7" fill="#6b7280"/>
<g transform="translate(467 853) scale(1.000)" fill="none" stroke="#fff" stroke-width="1.9" stroke-linecap="round" stroke-linejoin="round"><rect x="4" y="4" width="16" height="6" rx="1.5"/><rect x="4" y="14" width="16" height="6" rx="1.5"/><path d="M7.5 7h.01M7.5 17h.01"/></g>
<text x="506" y="859" font-size="13" font-weight="700" fill="#1f1f1f">lake-1</text>
<text x="506" y="875" font-size="11" fill="#6b6b6b">lake · cpx42</text>
<text x="506" y="888" font-size="10" font-weight="700" fill="#6b6b6b">600 GB</text>
<rect x="452" y="556" width="204" height="58" rx="9" fill="#ffffff" stroke="#e3e3e3" filter="url(#shadow)"/>
<rect x="462" y="568" width="34" height="34" rx="7" fill="#2f6fdb"/>
<g transform="translate(467 573) scale(1.000)" fill="none" stroke="#fff" stroke-width="1.9" stroke-linecap="round" stroke-linejoin="round"><ellipse cx="12" cy="5.5" rx="7" ry="2.5"/><path d="M5 5.5v13c0 1.4 3.1 2.5 7 2.5s7-1.1 7-2.5v-13M5 12c0 1.4 3.1 2.5 7 2.5s7-1.1 7-2.5"/></g>
<text x="506" y="579" font-size="13" font-weight="700" fill="#1f1f1f">pg-main</text>
<text x="506" y="595" font-size="11" fill="#6b6b6b">db · cx33</text>
<text x="506" y="608" font-size="10" font-weight="700" fill="#6b6b6b">240 GB</text>
<text x="550" y="608" font-size="10" font-weight="700" fill="#1f9d55">protected</text>
<rect x="1128" y="556" width="204" height="58" rx="9" fill="#ffffff" stroke="#e3e3e3" filter="url(#shadow)"/>
<rect x="1138" y="568" width="34" height="34" rx="7" fill="#2f6fdb"/>
<g transform="translate(1143 573) scale(1.000)" fill="none" stroke="#fff" stroke-width="1.9" stroke-linecap="round" stroke-linejoin="round"><ellipse cx="12" cy="5.5" rx="7" ry="2.5"/><path d="M5 5.5v13c0 1.4 3.1 2.5 7 2.5s7-1.1 7-2.5v-13M5 12c0 1.4 3.1 2.5 7 2.5s7-1.1 7-2.5"/></g>
<text x="1182" y="579" font-size="13" font-weight="700" fill="#1f1f1f">pg-replica</text>
<text x="1182" y="595" font-size="11" fill="#6b6b6b">replica · cx33</text>
<text x="1182" y="608" font-size="10" font-weight="700" fill="#6b6b6b">240 GB</text>
<rect x="1372" y="766" width="204" height="58" rx="9" fill="#ffffff" stroke="#e3e3e3" filter="url(#shadow)"/>
<rect x="1382" y="778" width="34" height="34" rx="7" fill="#6b7280"/>
<g transform="translate(1387 783) scale(1.000)" fill="none" stroke="#fff" stroke-width="1.9" stroke-linecap="round" stroke-linejoin="round"><rect x="4" y="4" width="16" height="6" rx="1.5"/><rect x="4" y="14" width="16" height="6" rx="1.5"/><path d="M7.5 7h.01M7.5 17h.01"/></g>
<text x="1426" y="789" font-size="13" font-weight="700" fill="#1f1f1f">preview-1</text>
<text x="1426" y="805" font-size="11" fill="#6b6b6b">preview · cpx22</text>
<text x="1426" y="818" font-size="10" font-weight="700" fill="#6b6b6b">40 GB</text>
<rect x="1521.6" y="758" width="46.4" height="16" rx="8" fill="#d98e04"/>
<text x="1544.8" y="769.5" text-anchor="middle" font-size="9.5" font-weight="800" letter-spacing="0.4" fill="#fff">PUBLIC</text>
<rect x="1372" y="990" width="204" height="58" rx="9" fill="#ffffff" stroke="#e3e3e3" filter="url(#shadow)"/>
<rect x="1382" y="1002" width="34" height="34" rx="7" fill="#d50c2d"/>
<g transform="translate(1387 1007) scale(1.000)" fill="none" stroke="#fff" stroke-width="1.9" stroke-linecap="round" stroke-linejoin="round"><path d="M12 3l7 2.8v5.4c0 4.4-3 8.3-7 9.8-4-1.5-7-5.4-7-9.8V5.8z"/><path d="M9.5 12l1.8 1.8 3.4-3.6"/></g>
<text x="1426" y="1013" font-size="13" font-weight="700" fill="#1f1f1f">secrets-1</text>
<text x="1426" y="1029" font-size="11" fill="#6b6b6b">vault · cx23</text>
<text x="1426" y="1042" font-size="10" font-weight="700" fill="#6b6b6b">10 GB</text>
<rect x="1128" y="472" width="204" height="58" rx="9" fill="#ffffff" stroke="#e3e3e3" filter="url(#shadow)"/>
<rect x="1138" y="484" width="34" height="34" rx="7" fill="#d50c2d"/>
<g transform="translate(1143 489) scale(1.000)" fill="none" stroke="#fff" stroke-width="1.9" stroke-linecap="round" stroke-linejoin="round"><path d="M12 3l7 2.8v5.4c0 4.4-3 8.3-7 9.8-4-1.5-7-5.4-7-9.8V5.8z"/><path d="M9.5 12l1.8 1.8 3.4-3.6"/></g>
<text x="1182" y="495" font-size="13" font-weight="700" fill="#1f1f1f">sso-1</text>
<text x="1182" y="511" font-size="11" fill="#6b6b6b">identity · cx23</text>
<text x="1182" y="524" font-size="10" font-weight="700" fill="#6b6b6b">20 GB</text>
<rect x="1128" y="388" width="204" height="58" rx="9" fill="#ffffff" stroke="#e3e3e3" filter="url(#shadow)"/>
<rect x="1138" y="400" width="34" height="34" rx="7" fill="#7c4dff"/>
<g transform="translate(1143 405) scale(1.000)" fill="none" stroke="#fff" stroke-width="1.9" stroke-linecap="round" stroke-linejoin="round"><circle cx="12" cy="12" r="8"/><path d="M4 12h16M12 4c2.2 2.3 3.2 5 3.2 8s-1 5.7-3.2 8c-2.2-2.3-3.2-5-3.2-8s1-5.7 3.2-8"/></g>
<text x="1182" y="411" font-size="13" font-weight="700" fill="#1f1f1f">web-1</text>
<text x="1182" y="427" font-size="11" fill="#6b6b6b">fe · cx33</text>
<rect x="668" y="388" width="204" height="58" rx="9" fill="#ffffff" stroke="#e3e3e3" filter="url(#shadow)"/>
<rect x="678" y="400" width="34" height="34" rx="7" fill="#7c4dff"/>
<g transform="translate(683 405) scale(1.000)" fill="none" stroke="#fff" stroke-width="1.9" stroke-linecap="round" stroke-linejoin="round"><circle cx="12" cy="12" r="8"/><path d="M4 12h16M12 4c2.2 2.3 3.2 5 3.2 8s-1 5.7-3.2 8c-2.2-2.3-3.2-5-3.2-8s1-5.7 3.2-8"/></g>
<text x="722" y="411" font-size="13" font-weight="700" fill="#1f1f1f">web-2</text>
<text x="722" y="427" font-size="11" fill="#6b6b6b">web · cx23</text>
<text x="722" y="440" font-size="10" font-weight="700" fill="#6b6b6b">40 GB</text>
<text x="760" y="440" font-size="10" font-weight="700" fill="#1f9d55">protected</text>
<rect x="817.6" y="380" width="46.4" height="16" rx="8" fill="#f38020"/>
<text x="840.8" y="391.5" text-anchor="middle" font-size="9.5" font-weight="800" letter-spacing="0.4" fill="#fff">VIA CF</text>
<rect x="668" y="1000" width="204" height="58" rx="9" fill="#ffffff" stroke="#e3e3e3" filter="url(#shadow)"/>
<rect x="678" y="1012" width="34" height="34" rx="7" fill="#0f8b8d"/>
<g transform="translate(683 1017) scale(1.000)" fill="none" stroke="#fff" stroke-width="1.9" stroke-linecap="round" stroke-linejoin="round"><rect x="3.5" y="4" width="17" height="5" rx="1"/><path d="M5 9v10h14V9M10 13h4"/></g>
<text x="722" y="1023" font-size="13" font-weight="700" fill="#1f1f1f">backup-box</text>
<text x="722" y="1039" font-size="11" fill="#6b6b6b">Storage Box · bx11</text>
<rect x="28" y="1118" width="1594" height="182" rx="10" fill="#ffffff" stroke="#e3e3e3" filter="url(#shadow)"/>
<text x="44" y="1142" font-size="11" font-weight="700" letter-spacing="0.6" fill="#6b6b6b">RECOMMENDED ACTIONS</text>
<text x="1606" y="1142" text-anchor="end" font-size="11" fill="#6b6b6b">plans for a human · the tool changes nothing</text>
<circle cx="56" cy="1172" r="11" fill="#1f1f1f"/>
<text x="56" y="1176" text-anchor="middle" font-size="11" font-weight="800" fill="#ffffff">1</text>
<text x="76" y="1170" font-size="12.5" font-weight="700" fill="#1f1f1f">Restrict preview-1 web ports to Cloudflare, or confirm direct access is intended</text>
<text x="76" y="1187" font-size="11" fill="#6b6b6b">Limit tcp/80 and tcp/443 on preview-1&#x27;s cloud firewall to Cloudflare ranges in IaC. On the host, check that Docker does not publish 80/443, because D…</text>
<text x="1606" y="1170" text-anchor="end" font-size="11" font-weight="700" fill="#1f1f1f">saving TBD  ·  risk low</text>
<rect x="1482" y="1176" width="54" height="15" rx="7.5" fill="#d98e04"/>
<text x="1509.0" y="1187" text-anchor="middle" font-size="9.5" font-weight="800" fill="#fff">MEDIUM</text>
<text x="1606" y="1187" text-anchor="end" font-size="10.5" fill="#6b6b6b">evidence</text>
<circle cx="56" cy="1218" r="11" fill="#1f1f1f"/>
<text x="56" y="1222" text-anchor="middle" font-size="11" font-weight="800" fill="#ffffff">2</text>
<text x="76" y="1216" font-size="12.5" font-weight="700" fill="#1f1f1f">Segment high-value hosts on the shared private network (pg-main, sso-1)</text>
<text x="76" y="1233" font-size="11" fill="#6b6b6b">Enforce a host firewall on the private interface that admits only required sources and ports, or move these hosts to a dedicated network.</text>
<text x="1606" y="1216" text-anchor="end" font-size="11" font-weight="700" fill="#1f1f1f">saving TBD  ·  risk medium</text>
<rect x="1496" y="1222" width="40" height="15" rx="7.5" fill="#1f9d55"/>
<text x="1516.0" y="1233" text-anchor="middle" font-size="9.5" font-weight="800" fill="#fff">HIGH</text>
<text x="1606" y="1233" text-anchor="end" font-size="10.5" fill="#6b6b6b">evidence</text>
<circle cx="56" cy="1264" r="11" fill="#1f1f1f"/>
<text x="56" y="1268" text-anchor="middle" font-size="11" font-weight="800" fill="#ffffff">3</text>
<text x="76" y="1262" font-size="12.5" font-weight="700" fill="#1f1f1f">Storage Box is reachable from outside Hetzner</text>
<text x="76" y="1279" font-size="11" fill="#6b6b6b">Disable external reachability if only Hetzner servers write backups; otherwise restrict protocols and use SSH keys, not passwords.</text>
<text x="1606" y="1262" text-anchor="end" font-size="11" font-weight="700" fill="#1f1f1f">saving TBD  ·  risk low</text>
<rect x="1496" y="1268" width="40" height="15" rx="7.5" fill="#1f9d55"/>
<text x="1516.0" y="1279" text-anchor="middle" font-size="9.5" font-weight="800" fill="#fff">HIGH</text>
<text x="1606" y="1279" text-anchor="end" font-size="10.5" fill="#6b6b6b">evidence</text>
<rect x="28" y="1312" width="1594" height="92" rx="10" fill="#ffffff" stroke="#e3e3e3"/>
<text x="44" y="1334" font-size="11" font-weight="700" letter-spacing="0.6" fill="#6b6b6b">LEGEND</text>
<rect x="44.0" y="1348" width="22" height="22" rx="7" fill="#7c4dff"/>
<g transform="translate(49.0 1353) scale(0.500)" fill="none" stroke="#fff" stroke-width="1.9" stroke-linecap="round" stroke-linejoin="round"><circle cx="12" cy="12" r="8"/><path d="M4 12h16M12 4c2.2 2.3 3.2 5 3.2 8s-1 5.7-3.2 8c-2.2-2.3-3.2-5-3.2-8s1-5.7 3.2-8"/></g>
<text x="72.0" y="1363" font-size="11.5" fill="#1f1f1f">Edge &amp; web</text>
<rect x="160.0" y="1348" width="22" height="22" rx="7" fill="#e8710a"/>
<g transform="translate(165.0 1353) scale(0.500)" fill="none" stroke="#fff" stroke-width="1.9" stroke-linecap="round" stroke-linejoin="round"><rect x="4" y="4" width="16" height="6" rx="1.5"/><rect x="4" y="14" width="16" height="6" rx="1.5"/><path d="M7.5 7h.01M7.5 17h.01"/></g>
<text x="188.0" y="1363" font-size="11.5" fill="#1f1f1f">Application</text>
<rect x="282.6" y="1348" width="22" height="22" rx="7" fill="#2f6fdb"/>
<g transform="translate(287.6 1353) scale(0.500)" fill="none" stroke="#fff" stroke-width="1.9" stroke-linecap="round" stroke-linejoin="round"><ellipse cx="12" cy="5.5" rx="7" ry="2.5"/><path d="M5 5.5v13c0 1.4 3.1 2.5 7 2.5s7-1.1 7-2.5v-13M5 12c0 1.4 3.1 2.5 7 2.5s7-1.1 7-2.5"/></g>
<text x="310.6" y="1363" font-size="11.5" fill="#1f1f1f">Data</text>
<rect x="359.0" y="1348" width="22" height="22" rx="7" fill="#d50c2d"/>
<g transform="translate(364.0 1353) scale(0.500)" fill="none" stroke="#fff" stroke-width="1.9" stroke-linecap="round" stroke-linejoin="round"><path d="M12 3l7 2.8v5.4c0 4.4-3 8.3-7 9.8-4-1.5-7-5.4-7-9.8V5.8z"/><path d="M9.5 12l1.8 1.8 3.4-3.6"/></g>
<text x="387.0" y="1363" font-size="11.5" fill="#1f1f1f">Identity &amp; secrets</text>
<rect x="527.8" y="1348" width="22" height="22" rx="7" fill="#6b7280"/>
<g transform="translate(532.8 1353) scale(0.500)" fill="none" stroke="#fff" stroke-width="1.9" stroke-linecap="round" stroke-linejoin="round"><rect x="4" y="4" width="16" height="6" rx="1.5"/><rect x="4" y="14" width="16" height="6" rx="1.5"/><path d="M7.5 7h.01M7.5 17h.01"/></g>
<text x="555.8" y="1363" font-size="11.5" fill="#1f1f1f">Other</text>
<rect x="610.8" y="1348" width="22" height="22" rx="7" fill="#0f8b8d"/>
<g transform="translate(615.8 1353) scale(0.500)" fill="none" stroke="#fff" stroke-width="1.9" stroke-linecap="round" stroke-linejoin="round"><rect x="3.5" y="4" width="17" height="5" rx="1"/><path d="M5 9v10h14V9M10 13h4"/></g>
<text x="638.8" y="1363" font-size="11.5" fill="#1f1f1f">Storage Box</text>
<path d="M 44.0 1388 L 78.0 1388" stroke="#d50c2d" stroke-width="2.2" stroke-dasharray="" marker-end="url(#arrow)"/>
<text x="86.0" y="1392" font-size="11.5" fill="#1f1f1f">Internet ingress</text>
<path d="M 224.4 1388 L 258.4 1388" stroke="#f38020" stroke-width="2.2" stroke-dasharray="" marker-end="url(#arrow)"/>
<text x="266.4" y="1392" font-size="11.5" fill="#1f1f1f">Cloudflare-only ingress</text>
<path d="M 449.6 1388 L 483.6 1388" stroke="#6d4fc2" stroke-width="2.2" stroke-dasharray="6 5" marker-end="url(#arrow)"/>
<text x="491.6" y="1392" font-size="11.5" fill="#1f1f1f">Tailscale admin</text>
<rect x="623.6" y="1380" width="52.8" height="16" rx="8" fill="#d50c2d"/>
<text x="650.0" y="1391.5" text-anchor="middle" font-size="9.5" font-weight="800" fill="#fff">EXPOSED</text>
<rect x="686.4" y="1380" width="46.4" height="16" rx="8" fill="#d98e04"/>
<text x="709.6" y="1391.5" text-anchor="middle" font-size="9.5" font-weight="800" fill="#fff">PUBLIC</text>
<rect x="742.8" y="1380" width="46.4" height="16" rx="8" fill="#f38020"/>
<text x="766.0" y="1391.5" text-anchor="middle" font-size="9.5" font-weight="800" fill="#fff">VIA CF</text>
<text x="803.1999999999999" y="1392" font-size="11.5" fill="#6b6b6b">no pill = no public ingress besides WireGuard/ICMP</text>
<rect x="1292" y="1376" width="22" height="14" rx="3" fill="none" stroke="#2f6fdb" stroke-dasharray="4 3"/>
<text x="1322" y="1388" font-size="11.5" fill="#1f1f1f">location</text>
<rect x="1386" y="1376" width="22" height="14" rx="3" fill="#f6fbf8" stroke="#1f9d55"/>
<text x="1416" y="1388" font-size="11.5" fill="#1f1f1f">private network (VPC)</text>
</svg>
