<svg xmlns="http://www.w3.org/2000/svg" width="1528" height="1326" viewBox="0 0 1528 1326" font-family="ui-sans-serif, -apple-system, Segoe UI, Helvetica, Arial, sans-serif">
<rect width="100%" height="100%" rx="16" fill="#f4f4f4"/>
<defs><marker id="arrow" viewBox="0 0 10 10" refX="9" refY="5" markerWidth="7" markerHeight="7" orient="auto-start-reverse"><path d="M 0 0 L 10 5 L 0 10 z" fill="context-stroke"/></marker><filter id="shadow" x="-5%" y="-10%" width="110%" height="130%"><feDropShadow dx="0" dy="1" stdDeviation="1.5" flood-color="#000" flood-opacity="0.08"/></filter></defs>
<rect x="28" y="28" width="22" height="22" rx="5" fill="#d50c2d"/>
<g transform="translate(32 32) scale(0.58)" fill="none" stroke="#fff" stroke-width="2.4" stroke-linecap="round" stroke-linejoin="round"><path d="M12 3l7 2.8v5.4c0 4.4-3 8.3-7 9.8-4-1.5-7-5.4-7-9.8V5.8z"/><path d="M9.5 12l1.8 1.8 3.4-3.6"/></g>
<text x="58" y="44" font-size="14" font-weight="800" fill="#1f1f1f">hetzner-audit</text>
<text x="160" y="44" font-size="12.5" fill="#6b6b6b">read-only Hetzner Cloud audit · github.com/jpolec/hetzner-cloud-audit-skills</text>
<text x="28" y="78" font-size="22" font-weight="700" fill="#1f1f1f">Per-VM connectivity · real project, identifiers replaced</text>
<text x="28" y="102" font-size="13" fill="#6b6b6b">blast radius on the private network · cloud control plane only (host firewalls not observed) · public IPs omitted</text>
<rect x="28.0" y="124" width="235.3" height="86" rx="10" fill="#ffffff" stroke="#e3e3e3" filter="url(#shadow)"/>
<text x="42.0" y="146" font-size="11" font-weight="700" letter-spacing="0.6" fill="#6b6b6b">IN PRIVATE NETWORK</text>
<text x="42.0" y="178" font-size="28" font-weight="800" fill="#1f9d55">16</text>
<text x="42.0" y="198" font-size="11.5" fill="#6b6b6b">acme-net · 10.0.0.0/16</text>
<rect x="275.3" y="124" width="235.3" height="86" rx="10" fill="#ffffff" stroke="#e3e3e3" filter="url(#shadow)"/>
<text x="289.3" y="146" font-size="11" font-weight="700" letter-spacing="0.6" fill="#6b6b6b">REACHABLE PAIRS</text>
<text x="289.3" y="178" font-size="28" font-weight="800" fill="#d98e04">240</text>
<text x="289.3" y="198" font-size="11.5" fill="#6b6b6b">any-to-any, every port</text>
<rect x="522.7" y="124" width="235.3" height="86" rx="10" fill="#ffffff" stroke="#e3e3e3" filter="url(#shadow)"/>
<text x="536.7" y="146" font-size="11" font-weight="700" letter-spacing="0.6" fill="#6b6b6b">HIGH-VALUE ON SHARED L3</text>
<text x="536.7" y="178" font-size="28" font-weight="800" fill="#d50c2d">3</text>
<text x="536.7" y="198" font-size="11.5" fill="#6b6b6b">data-platform, db, identity</text>
<rect x="770.0" y="124" width="235.3" height="86" rx="10" fill="#ffffff" stroke="#e3e3e3" filter="url(#shadow)"/>
<text x="784.0" y="146" font-size="11" font-weight="700" letter-spacing="0.6" fill="#6b6b6b">ENTRY POINTS IN NETWORK</text>
<text x="784.0" y="178" font-size="28" font-weight="800" fill="#d50c2d">4</text>
<text x="784.0" y="198" font-size="11.5" fill="#6b6b6b">Internet or Cloudflare ingress</text>
<rect x="1017.3" y="124" width="235.3" height="86" rx="10" fill="#ffffff" stroke="#e3e3e3" filter="url(#shadow)"/>
<text x="1031.3" y="146" font-size="11" font-weight="700" letter-spacing="0.6" fill="#6b6b6b">OUTSIDE NETWORK</text>
<text x="1031.3" y="178" font-size="28" font-weight="800" fill="#1f1f1f">2</text>
<text x="1031.3" y="198" font-size="11.5" fill="#6b6b6b">public interface + cloud FW only</text>
<rect x="1264.7" y="124" width="235.3" height="86" rx="10" fill="#ffffff" stroke="#e3e3e3" filter="url(#shadow)"/>
<text x="1278.7" y="146" font-size="11" font-weight="700" letter-spacing="0.6" fill="#6b6b6b">TAILSCALE ADMIN</text>
<text x="1278.7" y="178" font-size="28" font-weight="800" fill="#6d4fc2">12</text>
<text x="1278.7" y="198" font-size="11.5" fill="#6b6b6b">admin ports on tailnet</text>
<rect x="28" y="646" width="1472" height="34" rx="17" fill="#f6fbf8" stroke="#1f9d55" stroke-width="2"/>
<text x="46" y="668" font-size="13" font-weight="700" fill="#1f9d55">acme-net · 10.0.0.0/16 — any-to-any on every port: Hetzner Cloud Firewalls do not filter private networks</text>
<text x="780" y="736" font-size="12" font-weight="700" fill="#d50c2d">Blast radius: any of the 15 other members, including 4 Internet/Cloudflare entry points, has L3 access to</text>
<text x="780" y="753" font-size="12" font-weight="700" fill="#d50c2d">acme-api-db-1, acme-data, acme-orchestrator-1 on every port.</text>
<text x="780" y="770" font-size="12" font-weight="400" fill="#d50c2d">Cloud firewalls do not stop it; only host firewalls, localhost binds, and service authentication do (not</text>
<text x="780" y="787" font-size="12" font-weight="400" fill="#d50c2d">observed by this audit).</text>
<path d="M 144.0 352 L 144.0 644" stroke="#e3e3e3" stroke-width="1.4"/>
<path d="M 392.0 352 L 392.0 644" stroke="#e3e3e3" stroke-width="1.4"/>
<path d="M 144.0 682 L 144.0 726" stroke="#d50c2d" stroke-width="2" marker-end="url(#arrow)"/>
<path d="M 144.0 584 L 144.0 644" stroke="#d50c2d" stroke-width="2" marker-end="url(#arrow)"/>
<path d="M 640.0 352 L 640.0 644" stroke="#e3e3e3" stroke-width="1.4"/>
<path d="M 888.0 352 L 888.0 644" stroke="#e3e3e3" stroke-width="1.4"/>
<path d="M 392.0 682 L 392.0 726" stroke="#d50c2d" stroke-width="2" marker-end="url(#arrow)"/>
<path d="M 392.0 584 L 392.0 644" stroke="#d50c2d" stroke-width="2" marker-end="url(#arrow)"/>
<path d="M 1136.0 352 L 1136.0 644" stroke="#e3e3e3" stroke-width="1.4"/>
<path d="M 1384.0 352 L 1384.0 644" stroke="#e3e3e3" stroke-width="1.4"/>
<path d="M 640.0 682 L 640.0 726" stroke="#d50c2d" stroke-width="2" marker-end="url(#arrow)"/>
<path d="M 144.0 468 L 144.0 644" stroke="#e3e3e3" stroke-width="1.4"/>
<path d="M 640.0 584 L 640.0 644" stroke="#d50c2d" stroke-width="2" marker-end="url(#arrow)"/>
<path d="M 392.0 468 L 392.0 644" stroke="#e3e3e3" stroke-width="1.4"/>
<path d="M 640.0 468 L 640.0 644" stroke="#e3e3e3" stroke-width="1.4"/>
<path d="M 888.0 468 L 888.0 644" stroke="#e3e3e3" stroke-width="1.4"/>
<text x="28" y="256" font-size="11.5" font-weight="700" letter-spacing="0.6" fill="#6b6b6b">OTHER MEMBERS</text>
<text x="1500" y="488" text-anchor="end" font-size="11.5" font-weight="700" letter-spacing="0.6" fill="#d50c2d">ENTRY POINTS · Internet or Cloudflare ingress</text>
<text x="1500" y="718" text-anchor="end" font-size="11.5" font-weight="700" letter-spacing="0.6" fill="#d50c2d">HIGH-VALUE HOSTS ON THE SHARED NETWORK</text>
<rect x="28" y="268" width="232" height="84" rx="9" fill="#ffffff" stroke="#e3e3e3" filter="url(#shadow)"/>
<rect x="38" y="280" width="34" height="34" rx="7" fill="#e8710a"/>
<g transform="translate(43 285) scale(1.000)" fill="none" stroke="#fff" stroke-width="1.9" stroke-linecap="round" stroke-linejoin="round"><rect x="4" y="4" width="16" height="6" rx="1.5"/><rect x="4" y="14" width="16" height="6" rx="1.5"/><path d="M7.5 7h.01M7.5 17h.01"/></g>
<text x="82" y="292" font-size="13" font-weight="700" fill="#1f1f1f">acme-agents-1</text>
<text x="82" y="308" font-size="10.5" font-weight="400" fill="#6b6b6b">10.0.1.90 · cax11 · fsn1</text>
<text x="82" y="322" font-size="10.5" font-weight="400" fill="#6b6b6b">no public ingress</text>
<rect x="276" y="268" width="232" height="84" rx="9" fill="#ffffff" stroke="#e3e3e3" filter="url(#shadow)"/>
<rect x="286" y="280" width="34" height="34" rx="7" fill="#e8710a"/>
<g transform="translate(291 285) scale(1.000)" fill="none" stroke="#fff" stroke-width="1.9" stroke-linecap="round" stroke-linejoin="round"><rect x="4" y="4" width="16" height="6" rx="1.5"/><rect x="4" y="14" width="16" height="6" rx="1.5"/><path d="M7.5 7h.01M7.5 17h.01"/></g>
<text x="330" y="292" font-size="13" font-weight="700" fill="#1f1f1f">acme-api-app-1</text>
<text x="330" y="308" font-size="10.5" font-weight="400" fill="#6b6b6b">10.0.1.4 · cpx22 · fsn1</text>
<text x="330" y="322" font-size="10.5" font-weight="700" fill="#6d4fc2">Tailscale 2222,all</text>
<rect x="28" y="728" width="232" height="84" rx="9" fill="#ffffff" stroke="#e3e3e3" filter="url(#shadow)"/>
<rect x="38" y="740" width="34" height="34" rx="7" fill="#2f6fdb"/>
<g transform="translate(43 745) scale(1.000)" fill="none" stroke="#fff" stroke-width="1.9" stroke-linecap="round" stroke-linejoin="round"><ellipse cx="12" cy="5.5" rx="7" ry="2.5"/><path d="M5 5.5v13c0 1.4 3.1 2.5 7 2.5s7-1.1 7-2.5v-13M5 12c0 1.4 3.1 2.5 7 2.5s7-1.1 7-2.5"/></g>
<text x="82" y="752" font-size="13" font-weight="700" fill="#1f1f1f">acme-api-db-1</text>
<text x="82" y="768" font-size="10.5" font-weight="400" fill="#6b6b6b">10.0.1.1 · cx23 · fsn1</text>
<text x="82" y="782" font-size="10.5" font-weight="700" fill="#6d4fc2">Tailscale 2222,all</text>
<text x="82" y="796" font-size="10.5" font-weight="700" fill="#d50c2d">reachable from 15 VMs</text>
<rect x="28" y="500" width="232" height="84" rx="9" fill="#ffffff" stroke="#e3e3e3" filter="url(#shadow)"/>
<rect x="38" y="512" width="34" height="34" rx="7" fill="#7c4dff"/>
<g transform="translate(43 517) scale(1.000)" fill="none" stroke="#fff" stroke-width="1.9" stroke-linecap="round" stroke-linejoin="round"><circle cx="12" cy="12" r="8"/><path d="M4 12h16M12 4c2.2 2.3 3.2 5 3.2 8s-1 5.7-3.2 8c-2.2-2.3-3.2-5-3.2-8s1-5.7 3.2-8"/></g>
<text x="82" y="524" font-size="13" font-weight="700" fill="#1f1f1f">acme-batch-1</text>
<text x="82" y="540" font-size="10.5" font-weight="400" fill="#6b6b6b">10.0.1.10 · cx33 · nbg1</text>
<text x="82" y="554" font-size="10.5" font-weight="700" fill="#f38020">Cloudflare 80,443</text>
<rect x="205.6" y="492" width="46.4" height="16" rx="8" fill="#f38020"/>
<text x="228.8" y="503.5" text-anchor="middle" font-size="9.5" font-weight="800" fill="#fff">VIA CF</text>
<rect x="524" y="268" width="232" height="84" rx="9" fill="#ffffff" stroke="#e3e3e3" filter="url(#shadow)"/>
<rect x="534" y="280" width="34" height="34" rx="7" fill="#e8710a"/>
<g transform="translate(539 285) scale(1.000)" fill="none" stroke="#fff" stroke-width="1.9" stroke-linecap="round" stroke-linejoin="round"><rect x="4" y="4" width="16" height="6" rx="1.5"/><rect x="4" y="14" width="16" height="6" rx="1.5"/><path d="M7.5 7h.01M7.5 17h.01"/></g>
<text x="578" y="292" font-size="13" font-weight="700" fill="#1f1f1f">acme-bus</text>
<text x="578" y="308" font-size="10.5" font-weight="400" fill="#6b6b6b">10.0.1.9 · cpx22 · fsn1</text>
<text x="578" y="322" font-size="10.5" font-weight="400" fill="#6b6b6b">no public ingress</text>
<rect x="772" y="268" width="232" height="84" rx="9" fill="#ffffff" stroke="#e3e3e3" filter="url(#shadow)"/>
<rect x="782" y="280" width="34" height="34" rx="7" fill="#6b7280"/>
<g transform="translate(787 285) scale(1.000)" fill="none" stroke="#fff" stroke-width="1.9" stroke-linecap="round" stroke-linejoin="round"><rect x="4" y="4" width="16" height="6" rx="1.5"/><rect x="4" y="14" width="16" height="6" rx="1.5"/><path d="M7.5 7h.01M7.5 17h.01"/></g>
<text x="826" y="292" font-size="13" font-weight="700" fill="#1f1f1f">acme-catalog</text>
<text x="826" y="308" font-size="10.5" font-weight="400" fill="#6b6b6b">10.0.1.60 · cax11 · fsn1</text>
<text x="826" y="322" font-size="10.5" font-weight="700" fill="#6d4fc2">Tailscale 2222,8000</text>
<rect x="276" y="728" width="232" height="84" rx="9" fill="#ffffff" stroke="#e3e3e3" filter="url(#shadow)"/>
<rect x="286" y="740" width="34" height="34" rx="7" fill="#2f6fdb"/>
<g transform="translate(291 745) scale(1.000)" fill="none" stroke="#fff" stroke-width="1.9" stroke-linecap="round" stroke-linejoin="round"><ellipse cx="12" cy="5.5" rx="7" ry="2.5"/><path d="M5 5.5v13c0 1.4 3.1 2.5 7 2.5s7-1.1 7-2.5v-13M5 12c0 1.4 3.1 2.5 7 2.5s7-1.1 7-2.5"/></g>
<text x="330" y="752" font-size="13" font-weight="700" fill="#1f1f1f">acme-data</text>
<text x="330" y="768" font-size="10.5" font-weight="400" fill="#6b6b6b">10.0.1.80 · cx23 · fsn1</text>
<text x="330" y="782" font-size="10.5" font-weight="700" fill="#f38020">Cloudflare 80,443</text>
<text x="330" y="796" font-size="10.5" font-weight="700" fill="#d50c2d">reachable from 15 VMs</text>
<rect x="453.6" y="720" width="46.4" height="16" rx="8" fill="#f38020"/>
<text x="476.8" y="731.5" text-anchor="middle" font-size="9.5" font-weight="800" fill="#fff">VIA CF</text>
<rect x="276" y="500" width="232" height="84" rx="9" fill="#ffffff" stroke="#e3e3e3" filter="url(#shadow)"/>
<rect x="286" y="512" width="34" height="34" rx="7" fill="#7c4dff"/>
<g transform="translate(291 517) scale(1.000)" fill="none" stroke="#fff" stroke-width="1.9" stroke-linecap="round" stroke-linejoin="round"><circle cx="12" cy="12" r="8"/><path d="M4 12h16M12 4c2.2 2.3 3.2 5 3.2 8s-1 5.7-3.2 8c-2.2-2.3-3.2-5-3.2-8s1-5.7 3.2-8"/></g>
<text x="330" y="524" font-size="13" font-weight="700" fill="#1f1f1f">acme-edge-1</text>
<text x="330" y="540" font-size="10.5" font-weight="400" fill="#6b6b6b">10.0.1.2 · cx23 · fsn1</text>
<text x="330" y="554" font-size="10.5" font-weight="700" fill="#f38020">Cloudflare 80,443</text>
<text x="330" y="568" font-size="10.5" font-weight="700" fill="#6d4fc2">Tailscale 2222,all</text>
<rect x="453.6" y="492" width="46.4" height="16" rx="8" fill="#f38020"/>
<text x="476.8" y="503.5" text-anchor="middle" font-size="9.5" font-weight="800" fill="#fff">VIA CF</text>
<rect x="1020" y="268" width="232" height="84" rx="9" fill="#ffffff" stroke="#e3e3e3" filter="url(#shadow)"/>
<rect x="1030" y="280" width="34" height="34" rx="7" fill="#6b7280"/>
<g transform="translate(1035 285) scale(1.000)" fill="none" stroke="#fff" stroke-width="1.9" stroke-linecap="round" stroke-linejoin="round"><rect x="4" y="4" width="16" height="6" rx="1.5"/><rect x="4" y="14" width="16" height="6" rx="1.5"/><path d="M7.5 7h.01M7.5 17h.01"/></g>
<text x="1074" y="292" font-size="13" font-weight="700" fill="#1f1f1f">acme-ingest-1</text>
<text x="1074" y="308" font-size="10.5" font-weight="400" fill="#6b6b6b">10.0.1.6 · cpx32 · fsn1</text>
<text x="1074" y="322" font-size="10.5" font-weight="700" fill="#6d4fc2">Tailscale all</text>
<rect x="1268" y="268" width="232" height="84" rx="9" fill="#ffffff" stroke="#e3e3e3" filter="url(#shadow)"/>
<rect x="1278" y="280" width="34" height="34" rx="7" fill="#6b7280"/>
<g transform="translate(1283 285) scale(1.000)" fill="none" stroke="#fff" stroke-width="1.9" stroke-linecap="round" stroke-linejoin="round"><rect x="4" y="4" width="16" height="6" rx="1.5"/><rect x="4" y="14" width="16" height="6" rx="1.5"/><path d="M7.5 7h.01M7.5 17h.01"/></g>
<text x="1322" y="292" font-size="13" font-weight="700" fill="#1f1f1f">acme-ingest-2</text>
<text x="1322" y="308" font-size="10.5" font-weight="400" fill="#6b6b6b">10.0.1.61 · cx33 · fsn1</text>
<text x="1322" y="322" font-size="10.5" font-weight="700" fill="#6d4fc2">Tailscale 2222,9101</text>
<rect x="524" y="728" width="232" height="84" rx="9" fill="#ffffff" stroke="#e3e3e3" filter="url(#shadow)"/>
<rect x="534" y="740" width="34" height="34" rx="7" fill="#d50c2d"/>
<g transform="translate(539 745) scale(1.000)" fill="none" stroke="#fff" stroke-width="1.9" stroke-linecap="round" stroke-linejoin="round"><path d="M12 3l7 2.8v5.4c0 4.4-3 8.3-7 9.8-4-1.5-7-5.4-7-9.8V5.8z"/><path d="M9.5 12l1.8 1.8 3.4-3.6"/></g>
<text x="578" y="752" font-size="13" font-weight="700" fill="#1f1f1f">acme-orchestrator-1</text>
<text x="578" y="768" font-size="10.5" font-weight="400" fill="#6b6b6b">10.0.1.3 · cx23 · fsn1</text>
<text x="578" y="782" font-size="10.5" font-weight="700" fill="#6d4fc2">Tailscale 2222,all</text>
<text x="578" y="796" font-size="10.5" font-weight="700" fill="#d50c2d">reachable from 15 VMs</text>
<rect x="28" y="384" width="232" height="84" rx="9" fill="#ffffff" stroke="#e3e3e3" filter="url(#shadow)"/>
<rect x="38" y="396" width="34" height="34" rx="7" fill="#2f6fdb"/>
<g transform="translate(43 401) scale(1.000)" fill="none" stroke="#fff" stroke-width="1.9" stroke-linecap="round" stroke-linejoin="round"><ellipse cx="12" cy="5.5" rx="7" ry="2.5"/><path d="M5 5.5v13c0 1.4 3.1 2.5 7 2.5s7-1.1 7-2.5v-13M5 12c0 1.4 3.1 2.5 7 2.5s7-1.1 7-2.5"/></g>
<text x="82" y="408" font-size="13" font-weight="700" fill="#1f1f1f">acme-replica</text>
<text x="82" y="424" font-size="10.5" font-weight="400" fill="#6b6b6b">10.0.1.7 · cax31 · fsn1</text>
<text x="82" y="438" font-size="10.5" font-weight="700" fill="#6d4fc2">Tailscale 2222,all</text>
<rect x="524" y="500" width="232" height="84" rx="9" fill="#ffffff" stroke="#e3e3e3" filter="url(#shadow)"/>
<rect x="534" y="512" width="34" height="34" rx="7" fill="#6b7280"/>
<g transform="translate(539 517) scale(1.000)" fill="none" stroke="#fff" stroke-width="1.9" stroke-linecap="round" stroke-linejoin="round"><rect x="4" y="4" width="16" height="6" rx="1.5"/><rect x="4" y="14" width="16" height="6" rx="1.5"/><path d="M7.5 7h.01M7.5 17h.01"/></g>
<text x="578" y="524" font-size="13" font-weight="700" fill="#1f1f1f">acme-sim</text>
<text x="578" y="540" font-size="10.5" font-weight="400" fill="#6b6b6b">10.0.1.63 · cpx32 · fsn1</text>
<text x="578" y="554" font-size="10.5" font-weight="700" fill="#d50c2d">Internet 80,443</text>
<text x="578" y="568" font-size="10.5" font-weight="700" fill="#6d4fc2">Tailscale 2222</text>
<rect x="701.6" y="492" width="46.4" height="16" rx="8" fill="#d98e04"/>
<text x="724.8" y="503.5" text-anchor="middle" font-size="9.5" font-weight="800" fill="#fff">PUBLIC</text>
<rect x="276" y="384" width="232" height="84" rx="9" fill="#ffffff" stroke="#e3e3e3" filter="url(#shadow)"/>
<rect x="286" y="396" width="34" height="34" rx="7" fill="#2f6fdb"/>
<g transform="translate(291 401) scale(1.000)" fill="none" stroke="#fff" stroke-width="1.9" stroke-linecap="round" stroke-linejoin="round"><ellipse cx="12" cy="5.5" rx="7" ry="2.5"/><path d="M5 5.5v13c0 1.4 3.1 2.5 7 2.5s7-1.1 7-2.5v-13M5 12c0 1.4 3.1 2.5 7 2.5s7-1.1 7-2.5"/></g>
<text x="330" y="408" font-size="13" font-weight="700" fill="#1f1f1f">acme-warehouse</text>
<text x="330" y="424" font-size="10.5" font-weight="400" fill="#6b6b6b">10.0.1.72 · cpx32 · hel1</text>
<text x="330" y="438" font-size="10.5" font-weight="700" fill="#6d4fc2">Tailscale 2222,9102</text>
<rect x="524" y="384" width="232" height="84" rx="9" fill="#ffffff" stroke="#e3e3e3" filter="url(#shadow)"/>
<rect x="534" y="396" width="34" height="34" rx="7" fill="#7c4dff"/>
<g transform="translate(539 401) scale(1.000)" fill="none" stroke="#fff" stroke-width="1.9" stroke-linecap="round" stroke-linejoin="round"><circle cx="12" cy="12" r="8"/><path d="M4 12h16M12 4c2.2 2.3 3.2 5 3.2 8s-1 5.7-3.2 8c-2.2-2.3-3.2-5-3.2-8s1-5.7 3.2-8"/></g>
<text x="578" y="408" font-size="13" font-weight="700" fill="#1f1f1f">acme-web-1</text>
<text x="578" y="424" font-size="10.5" font-weight="400" fill="#6b6b6b">10.0.1.5 · cx23 · fsn1</text>
<text x="578" y="438" font-size="10.5" font-weight="700" fill="#6d4fc2">Tailscale 2222,all</text>
<rect x="772" y="384" width="232" height="84" rx="9" fill="#ffffff" stroke="#e3e3e3" filter="url(#shadow)"/>
<rect x="782" y="396" width="34" height="34" rx="7" fill="#e8710a"/>
<g transform="translate(787 401) scale(1.000)" fill="none" stroke="#fff" stroke-width="1.9" stroke-linecap="round" stroke-linejoin="round"><rect x="4" y="4" width="16" height="6" rx="1.5"/><rect x="4" y="14" width="16" height="6" rx="1.5"/><path d="M7.5 7h.01M7.5 17h.01"/></g>
<text x="826" y="408" font-size="13" font-weight="700" fill="#1f1f1f">acme-worker-1</text>
<text x="826" y="424" font-size="10.5" font-weight="400" fill="#6b6b6b">10.0.1.8 · cx22 · hel1</text>
<text x="826" y="438" font-size="10.5" font-weight="400" fill="#6b6b6b">no public ingress</text>
<rect x="18" y="850" width="1492" height="146" rx="10" fill="none" stroke="#e3e3e3" stroke-dasharray="3 4"/>
<text x="28" y="868" font-size="11.5" font-weight="700" letter-spacing="0.6" fill="#6b6b6b">OUTSIDE THE PRIVATE NETWORK · reachable only through public interfaces and the cloud firewall</text>
<rect x="28" y="884" width="232" height="84" rx="9" fill="#ffffff" stroke="#e3e3e3" filter="url(#shadow)"/>
<rect x="38" y="896" width="34" height="34" rx="7" fill="#d50c2d"/>
<g transform="translate(43 901) scale(1.000)" fill="none" stroke="#fff" stroke-width="1.9" stroke-linecap="round" stroke-linejoin="round"><path d="M12 3l7 2.8v5.4c0 4.4-3 8.3-7 9.8-4-1.5-7-5.4-7-9.8V5.8z"/><path d="M9.5 12l1.8 1.8 3.4-3.6"/></g>
<text x="82" y="908" font-size="13" font-weight="700" fill="#1f1f1f">acme-auth-1</text>
<text x="82" y="924" font-size="10.5" font-weight="400" fill="#6b6b6b">cx23 · fsn1</text>
<text x="82" y="938" font-size="10.5" font-weight="400" fill="#6b6b6b">no public ingress</text>
<rect x="276" y="884" width="232" height="84" rx="9" fill="#ffffff" stroke="#e3e3e3" filter="url(#shadow)"/>
<rect x="286" y="896" width="34" height="34" rx="7" fill="#d50c2d"/>
<g transform="translate(291 901) scale(1.000)" fill="none" stroke="#fff" stroke-width="1.9" stroke-linecap="round" stroke-linejoin="round"><path d="M12 3l7 2.8v5.4c0 4.4-3 8.3-7 9.8-4-1.5-7-5.4-7-9.8V5.8z"/><path d="M9.5 12l1.8 1.8 3.4-3.6"/></g>
<text x="330" y="908" font-size="13" font-weight="700" fill="#1f1f1f">acme-vault-1</text>
<text x="330" y="924" font-size="10.5" font-weight="400" fill="#6b6b6b">cx23 · fsn1</text>
<text x="330" y="938" font-size="10.5" font-weight="400" fill="#6b6b6b">no public ingress</text>
<rect x="28" y="1034" width="1472" height="182" rx="10" fill="#ffffff" stroke="#e3e3e3" filter="url(#shadow)"/>
<text x="44" y="1058" font-size="11" font-weight="700" letter-spacing="0.6" fill="#6b6b6b">RECOMMENDED SECURITY ACTIONS</text>
<text x="1484" y="1058" text-anchor="end" font-size="11" fill="#6b6b6b">plans for a human · the tool changes nothing</text>
<circle cx="56" cy="1088" r="11" fill="#1f1f1f"/>
<text x="56" y="1092" text-anchor="middle" font-size="11" font-weight="800" fill="#ffffff">1</text>
<text x="76" y="1086" font-size="12.5" font-weight="700" fill="#1f1f1f">Restrict acme-sim web ports to Cloudflare, or confirm direct access is intended</text>
<text x="76" y="1103" font-size="11" fill="#6b6b6b">Limit tcp/80 and tcp/443 on acme-sim&#x27;s cloud firewall to Cloudflare ranges in IaC. On the host, check that Docker does not publish 80/443, because Do…</text>
<text x="1484" y="1086" text-anchor="end" font-size="11" font-weight="700" fill="#1f1f1f">saving TBD  ·  risk low</text>
<rect x="1360" y="1092" width="54" height="15" rx="7.5" fill="#d98e04"/>
<text x="1387.0" y="1103" text-anchor="middle" font-size="9.5" font-weight="800" fill="#fff">MEDIUM</text>
<text x="1484" y="1103" text-anchor="end" font-size="10.5" fill="#6b6b6b">evidence</text>
<circle cx="56" cy="1134" r="11" fill="#1f1f1f"/>
<text x="56" y="1138" text-anchor="middle" font-size="11" font-weight="800" fill="#ffffff">2</text>
<text x="76" y="1132" font-size="12.5" font-weight="700" fill="#1f1f1f">Segment high-value hosts on the shared private network (acme-api-db-1, acme-orchestrator-1)</text>
<text x="76" y="1149" font-size="11" fill="#6b6b6b">Enforce a host firewall on the private interface that admits only required sources and ports, or move these hosts to a dedicated network.</text>
<text x="1484" y="1132" text-anchor="end" font-size="11" font-weight="700" fill="#1f1f1f">saving TBD  ·  risk medium</text>
<rect x="1374" y="1138" width="40" height="15" rx="7.5" fill="#1f9d55"/>
<text x="1394.0" y="1149" text-anchor="middle" font-size="9.5" font-weight="800" fill="#fff">HIGH</text>
<text x="1484" y="1149" text-anchor="end" font-size="10.5" fill="#6b6b6b">evidence</text>
<circle cx="56" cy="1180" r="11" fill="#1f1f1f"/>
<text x="56" y="1184" text-anchor="middle" font-size="11" font-weight="800" fill="#ffffff">3</text>
<text x="76" y="1178" font-size="12.5" font-weight="700" fill="#1f1f1f">Confirm the management path to acme-auth-1, acme-vault-1</text>
<text x="76" y="1195" font-size="11" fill="#6b6b6b">Document the intended access path. If VPC workloads must reach them, attach them deliberately; otherwise record the isolation as a control.</text>
<text x="1484" y="1178" text-anchor="end" font-size="11" font-weight="700" fill="#1f1f1f">saving TBD  ·  risk low</text>
<rect x="1381" y="1184" width="33" height="15" rx="7.5" fill="#6b6b6b"/>
<text x="1397.5" y="1195" text-anchor="middle" font-size="9.5" font-weight="800" fill="#fff">LOW</text>
<text x="1484" y="1195" text-anchor="end" font-size="10.5" fill="#6b6b6b">evidence</text>
<rect x="28" y="1228" width="1472" height="70" rx="10" fill="#ffffff" stroke="#e3e3e3"/>
<text x="44" y="1250" font-size="11" font-weight="700" letter-spacing="0.6" fill="#6b6b6b">LEGEND</text>
<path d="M 44.0 1276 L 74.0 1276" stroke="#e3e3e3" stroke-width="2"/>
<text x="82.0" y="1280" font-size="11.5" fill="#1f1f1f">attached to the network</text>
<path d="M 244.0 1276 L 274.0 1276" stroke="#d50c2d" stroke-width="1.8" opacity="0.7" marker-end="url(#arrow)"/>
<text x="284.0" y="1280" font-size="11.5" fill="#1f1f1f">entry point → network → high-value host (all ports; cloud FW does not filter)</text>
<text x="714.0" y="1280" font-size="11.5" font-weight="700" fill="#d50c2d">Internet ports</text>
<text x="828.4" y="1280" font-size="11.5" font-weight="700" fill="#f38020">Cloudflare-only ports</text>
<text x="989.0" y="1280" font-size="11.5" font-weight="700" fill="#6d4fc2">Tailscale admin ports</text>
</svg>
